<svg width="828" height="99" viewBox="0 0 828 99" fill="none" xmlns="http://www.w3.org/2000/svg">
<path d="M390.016 51C327.205 51 272.486 47.8988 227.186 43.6987C84.7616 30.4938 2.08685 3.86634 1.2679 3.60084C0.304236 3.28556 -0.222351 2.24382 0.0900064 1.2777C0.403831 0.309725 1.43921 -0.219419 2.40214 0.0921754C3.21816 0.359519 85.6034 26.8819 227.665 40.0389C358.776 52.1855 568.969 55.1005 825.782 0.044236C826.767 -0.178858 827.747 0.464601 827.959 1.46207C828.17 2.4577 827.539 3.43859 826.549 3.64878C657.938 39.7992 509.373 51 390.016 51Z" fill="#616161"/>
<path d="M56.27 67C56.27 67 55.4938 63.2632 54.3291 57.6552C53.1828 52.0028 51.7019 44.4737 50.2957 36.9649C47.4601 21.9381 45 7 45 7C45 7 47.8584 7.66193 52.1474 8.65485C56.4506 9.61448 62.1221 11.0511 67.9036 12.2252C73.6715 13.4308 79.4399 14.6364 83.766 15.5405C88.0821 16.4761 91 16.9753 91 16.9753C91 16.9753 88.8834 20.139 85.7076 24.8853C82.5312 29.5837 78.256 35.8407 73.9162 42.0847C65.2555 54.5766 56.27 67 56.27 67Z" fill="#C1E3D7"/>
<path d="M120.604 78C120.604 78 116.686 63.5095 113.035 49.0606C111.195 41.8642 109.436 34.5411 108.138 29.0918C106.855 23.6371 106 20 106 20C106 20 108.922 20.5281 113.303 21.3203C117.693 22.0817 123.584 22.9553 129.456 23.8957C135.334 24.8217 141.211 25.7477 145.618 26.4422C150.047 27.0409 153 27.4388 153 27.4388C153 27.4388 151.02 30.631 148.051 35.4201C145.063 40.231 141.07 46.5466 137.026 52.8369C128.948 65.4393 120.604 78 120.604 78Z" fill="#D78E6F"/>
<path d="M186.079 87C186.079 87 181.572 72.826 177.306 58.6052C173.031 44.2873 169 30 169 30C169 30 171.928 30.392 176.322 30.9801C180.704 31.6256 186.591 32.2371 192.474 32.879C204.237 34.1648 216 35.4524 216 35.4524C216 35.4524 208.742 48.3622 201.249 61.2487C193.78 74.1369 186.079 87 186.079 87Z" fill="#387DB1"/>
<path d="M250.678 94C250.678 94 245.545 79.4833 240.638 64.9833C235.707 50.4815 231 36 231 36C231 36 242.99 37.0224 254.978 38.0466C260.966 38.6207 266.979 38.9559 271.486 39.2097C275.995 39.4764 279 39.6542 279 39.6542C279 39.6542 272.121 53.3022 265.029 66.9354C261.487 73.7715 257.905 80.5631 255.204 85.586C252.489 90.6347 250.678 94 250.678 94Z" fill="#9DBC98"/>
<path d="M316.296 98C316.296 98 314.925 94.459 312.868 89.1465C310.822 83.8174 308.116 76.7961 305.455 69.6347C300.123 55.3118 295 41 295 41C295 41 297.934 41.1771 302.335 41.4429C306.731 41.7695 312.61 41.954 318.488 42.133C330.243 42.5186 342 42.9043 342 42.9043C342 42.9043 335.766 56.6847 329.329 70.4577C322.913 84.2325 316.296 98 316.296 98Z" fill="#D78E6F"/>
<path d="M381.709 99C381.709 99 375.593 84.9986 369.674 70.9972C363.738 56.9977 358 43 358 43L406 43.214C406 43.214 400.116 57.1582 394.033 71.1061C387.971 85.0521 381.709 99 381.709 99Z" fill="#EBD9B4"/>
<path d="M446.582 98C446.582 98 440.004 84.3236 433.618 70.6417C427.213 56.9599 421 43.2762 421 43.2762C421 43.2762 433 42.9895 445.003 42.7029C451.002 42.5605 457.003 42.4199 461.504 42.3122C463.754 42.2793 465.629 42.1917 466.939 42.1095C468.252 42.0402 469 42 469 42C469 42 467.636 45.5346 465.592 50.8364C463.513 56.0799 460.739 63.0705 457.967 70.063C452.371 84.0279 446.582 98 446.582 98Z" fill="#387DB1"/>
<path d="M511.401 96C511.401 96 504.466 82.4626 497.531 68.9252C490.765 55.3787 484 41.8303 484 41.8303C484 41.8303 496.003 41.196 508.008 40.56C514.008 40.2135 520.015 39.9917 524.51 39.6233C529.004 39.2493 532 39 532 39C532 39 530.749 42.5874 528.873 47.9693C526.987 53.322 524.458 60.5902 521.879 67.6347C516.641 81.8174 511.401 96 511.401 96Z" fill="#9DBC98"/>
<path d="M577.177 90C577.177 90 569.801 76.5964 562.423 63.1909C555.212 49.7725 548 36.3541 548 36.3541C548 36.3541 560.007 35.3564 572.016 34.3569C578.016 33.8239 584.032 33.4514 588.515 32.8557C593.005 32.343 596 32 596 32C596 32 591.475 46.5876 586.768 61.166C581.973 75.5821 577.177 90 577.177 90Z" fill="#D97E84"/>
<path d="M641.914 83C641.914 83 634.105 69.9474 626.295 56.8949C618.648 43.8222 611 30.7496 611 30.7496C611 30.7496 623.01 29.3972 635.02 28.0429C641.02 27.321 647.042 26.7929 651.521 26.0801C656.008 25.4331 659 25 659 25C659 25 657.967 28.6478 656.421 34.1178C654.843 39.5804 652.741 46.8651 650.637 54.1499C646.274 68.5749 641.914 83 641.914 83Z" fill="#82D3C4"/>
<path d="M705.932 74C705.932 74 697.872 61.2789 689.811 48.556C681.906 35.8132 674 23.0685 674 23.0685C674 23.0685 685.757 21.3549 697.516 19.6413C703.396 18.7845 709.274 17.9296 713.685 17.287C718.074 16.5137 721 16 721 16C721 16 720.096 19.654 718.739 25.1342C717.38 30.6507 715.527 37.8716 713.636 45.0835C709.784 59.5418 705.932 74 705.932 74Z" fill="#387DB1"/>
<path d="M770.554 63C770.554 63 762.09 50.3791 753.628 37.7563C745.314 25.1059 737 12.4575 737 12.4575L784 4C784 4 780.714 18.7367 777.426 33.4715C773.99 48.2358 770.554 63 770.554 63Z" fill="#9DBC98"/>
</svg>
