<svg width="393" height="99" viewBox="0 0 393 99" fill="none" xmlns="http://www.w3.org/2000/svg">
<path d="M173.016 51C110.205 51 55.4864 47.8988 10.1863 43.6987C-132.238 30.4938 -214.913 3.86634 -215.732 3.60084C-216.696 3.28556 -217.222 2.24382 -216.91 1.2777C-216.596 0.309725 -215.561 -0.219419 -214.598 0.0921754C-213.782 0.359519 -131.397 26.8819 10.6651 40.0389C141.776 52.1855 351.969 55.1005 608.782 0.044236C609.767 -0.178858 610.747 0.464601 610.959 1.46207C611.17 2.4577 610.539 3.43859 609.549 3.64878C440.938 39.7992 292.373 51 173.016 51Z" fill="#2E6964"/>
<path d="M33.6781 94C33.6781 94 28.5452 79.4833 23.6382 64.9833C18.7071 50.4815 14 36 14 36C14 36 25.9898 37.0224 37.9778 38.0466C43.9662 38.6207 49.9787 38.9559 54.4858 39.2097C58.9947 39.4764 62 39.6542 62 39.6542C62 39.6542 55.1209 53.3022 48.0289 66.9354C44.4865 73.7715 40.9053 80.5631 38.2037 85.586C35.4891 90.6347 33.6781 94 33.6781 94Z" fill="#9DBC98"/>
<path d="M99.2956 98C99.2956 98 97.9254 94.459 95.8684 89.1465C93.8221 83.8174 91.1161 76.7961 88.4553 69.6347C83.1228 55.3118 78 41 78 41C78 41 80.9338 41.1771 85.3353 41.4429C89.7315 41.7695 95.6099 41.954 101.488 42.133C113.243 42.5186 125 42.9043 125 42.9043C125 42.9043 118.766 56.6847 112.329 70.4577C105.913 84.2325 99.2956 98 99.2956 98Z" fill="#D78E6F"/>
<path d="M164.709 99C164.709 99 158.593 84.9986 152.674 70.9972C146.738 56.9977 141 43 141 43L189 43.214C189 43.214 183.116 57.1582 177.033 71.1061C170.971 85.0521 164.709 99 164.709 99Z" fill="#EBD9B4"/>
<path d="M229.582 98C229.582 98 223.004 84.3236 216.618 70.6417C210.213 56.9599 204 43.2762 204 43.2762C204 43.2762 216 42.9895 228.003 42.7029C234.002 42.5605 240.003 42.4199 244.504 42.3122C246.754 42.2793 248.629 42.1917 249.939 42.1095C251.252 42.0402 252 42 252 42C252 42 250.636 45.5346 248.592 50.8364C246.513 56.0799 243.739 63.0705 240.967 70.063C235.371 84.0279 229.582 98 229.582 98Z" fill="#387DB1"/>
<path d="M294.401 96C294.401 96 287.466 82.4626 280.531 68.9252C273.765 55.3787 267 41.8303 267 41.8303C267 41.8303 279.003 41.196 291.008 40.56C297.008 40.2135 303.015 39.9917 307.51 39.6233C312.004 39.2493 315 39 315 39C315 39 313.749 42.5874 311.873 47.9693C309.987 53.322 307.458 60.5902 304.879 67.6347C299.641 81.8174 294.401 96 294.401 96Z" fill="#9DBC98"/>
<path d="M360.177 90C360.177 90 352.801 76.5964 345.423 63.1909C338.212 49.7725 331 36.3541 331 36.3541C331 36.3541 343.007 35.3564 355.016 34.3569C361.016 33.8239 367.032 33.4514 371.515 32.8557C376.005 32.343 379 32 379 32C379 32 374.475 46.5876 369.768 61.166C364.973 75.5821 360.177 90 360.177 90Z" fill="#D97E84"/>
</svg>
