<svg width="393" height="73" viewBox="0 0 393 73" fill="none" xmlns="http://www.w3.org/2000/svg">
<path d="M192.635 38.7841C144.541 38.7841 102.643 36.4257 67.9567 33.2316C-41.098 23.1893 -104.402 2.94084 -105.029 2.73753C-105.767 2.49776 -106.17 1.70693 -105.931 0.970799C-105.691 0.236071 -104.898 -0.167738 -104.161 0.0706276C-103.536 0.272538 -40.4534 20.4425 68.3232 30.4497C168.715 39.6857 329.66 41.9039 526.302 0.0327668C527.056 -0.134089 527.806 0.353853 527.969 1.11242C528.13 1.86958 527.647 2.61414 526.889 2.77539C397.784 30.266 284.028 38.7841 192.635 38.7841Z" fill="#638889"/>
<path d="M7.72084 49.8118L19.4399 62.5293L24.5993 22.6809C24.5993 22.6809 18.1989 21.8021 11.7999 20.9219C8.59898 20.4874 5.3967 20.0572 3.01438 19.6409C0.626524 19.2541 -0.965195 18.9962 -0.965195 18.9962L-7.06116 58.7087C-7.06116 58.7087 -3.35278 56.5223 0.355049 54.3359C4.03794 52.0738 7.72084 49.8118 7.72084 49.8118Z" fill="#EBD9B4"/>
<path d="M44.7905 54.0976L57.0159 66.4869L61.0088 26.6195L35.0071 23.7454L30.1399 63.515L44.7905 54.0976Z" fill="#638889"/>
<path d="M81.4613 57.6793C81.4613 57.6793 84.538 60.6842 87.616 63.6905C89.1667 65.1943 90.7174 66.6981 91.8794 67.8264C93.0497 68.9226 93.8285 69.653 93.8285 69.653L96.6267 29.862C96.6267 29.862 95.0153 29.7966 92.6114 29.5684C90.2047 29.3611 86.9957 29.0843 83.7881 28.8075C77.3716 28.2552 70.9537 27.7029 70.9537 27.7029L67.3408 67.4271L81.4613 57.6793Z" fill="#C1E3D7"/>
<path d="M118.504 60.2365C118.504 60.2365 121.689 63.2051 124.874 66.1751C128.072 69.1818 131.302 72.0275 131.302 72.0275L133.036 31.5497C133.036 31.5497 131.409 31.5214 128.973 31.3943C126.539 31.2473 123.293 31.0523 120.048 30.8573C113.555 30.4674 107.064 30.0774 107.064 30.0774L104.542 70.5128L118.504 60.2365Z" fill="#9DBC98"/>
<path d="M155.543 61.3896C155.543 61.3896 158.832 64.2604 162.123 67.1311C163.778 68.5671 165.434 70.0032 166.676 71.0802C167.923 72.1235 168.754 72.819 168.754 72.819L169.446 32.4531C169.446 32.4531 167.803 32.4784 165.343 32.3756C162.883 32.2968 159.602 32.1898 156.322 32.0842C149.761 31.873 143.201 31.6604 143.201 31.6604L141.743 72.0066L155.543 61.3896Z" fill="#EBD9B4"/>
<path d="M192.409 61.7383L205.855 72.819L205.521 32.5698L179.349 32.4519L178.944 72.7011L192.409 61.7383Z" fill="#638889"/>
<path d="M229.244 61.6172L243.056 72.1785L241.721 32.4519L215.353 33.0743L215.966 72.819L229.244 61.6172Z" fill="#C1E3D7"/>
<path d="M266.276 60.2079L280.257 70.5815L277.958 30.0774L251.763 31.4894L253.363 72.0275L266.276 60.2079Z" fill="#9DBC98"/>
<path d="M303.307 58.3564L317.458 68.3631L314.225 27.7029C314.225 27.7029 307.714 28.2577 301.204 28.8125C294.699 29.447 288.172 29.733 288.172 29.733L290.726 70.4445C290.726 70.4445 293.886 67.4683 297.047 64.4936C300.177 61.425 303.307 58.3564 303.307 58.3564Z" fill="#EBD9B4"/>
<path d="M340.331 55.1348C340.331 55.1348 341.224 55.7535 342.562 56.6808C343.905 57.6264 345.689 58.8116 347.479 59.9911C351.068 62.3601 354.659 64.7291 354.659 64.7291L350.512 24.5369C350.512 24.5369 348.895 24.7257 346.467 25.0076C344.041 25.2908 340.807 25.6925 337.56 25.925C331.07 26.4732 324.582 27.0214 324.582 27.0214L328.061 67.2784L340.331 55.1348Z" fill="#638889"/>
<path d="M377.329 50.9156L391.86 60.2704L386.82 20.5792L360.991 23.5514L365.378 63.3208L377.329 50.9156Z" fill="#C1E3D7"/>
</svg>
