<svg width="801" height="92" viewBox="0 0 801 92" fill="none" xmlns="http://www.w3.org/2000/svg">
<path d="M377.298 49C316.535 49 263.601 46.0204 219.778 41.9849C81.9976 29.2975 2.0188 3.71543 1.22656 3.45856C0.294315 3.15564 -0.2151 2.1565 0.0870714 1.22647C0.390663 0.298206 1.39228 -0.21197 2.32381 0.0891835C3.11322 0.344278 82.812 25.8271 220.241 38.4703C347.077 50.1391 550.416 52.9416 798.855 0.0413499C799.807 -0.169457 800.755 0.447012 800.961 1.40539C801.165 2.36199 800.554 3.30267 799.596 3.50639C636.484 38.2382 492.763 49 377.298 49Z" fill="#638889"/>
<path d="M50.8976 45.8081C50.8976 45.8081 51.7516 46.8979 53.0316 48.5335C54.3269 50.1407 56.053 52.2831 57.7789 54.4236C61.2769 58.7118 64.7748 63 64.7748 63L75 13.0581C75 13.0581 72.9846 12.6403 69.9613 12.0163C66.9483 11.3638 62.8823 10.6171 58.8994 9.66597C50.9052 7.83299 42.9117 6 42.9117 6L31 55.565C31 55.565 36.0048 53.1328 41.0094 50.7007C45.9539 48.2544 50.8976 45.8081 50.8976 45.8081Z" fill="#C1E3D7"/>
<path d="M97.3011 55.3778C97.3011 55.3778 100.883 59.5737 104.463 63.7696C108.1 67.8839 111.736 72 111.736 72L120 21.7621C120 21.7621 117.967 21.4354 114.917 20.9453C111.859 20.4943 107.822 19.7271 103.78 18.9796C95.6948 17.4898 87.6101 16 87.6101 16L78 65.9964L97.3011 55.3778Z" fill="#9DBC98"/>
<path d="M143.676 62.9326L158.482 79L165 28.6552C165 28.6552 156.914 27.545 148.829 26.433C144.785 25.884 140.739 25.3404 137.73 24.8145C134.713 24.3258 132.702 24 132.702 24L125 74.1731C125 74.1731 129.685 71.4107 134.37 68.6484C139.023 65.7905 143.676 62.9326 143.676 62.9326Z" fill="#EBD9B4"/>
<path d="M190.51 68.3472L205.955 84L211 33.6312L178.149 30L172 80.2452L190.51 68.3472Z" fill="#638889"/>
<path d="M236.84 72.8724C236.84 72.8724 240.727 76.6688 244.616 80.467C246.575 82.3669 248.534 84.2669 250.002 85.6923C251.481 87.0772 252.465 88 252.465 88L256 37.7278C256 37.7278 253.964 37.6451 250.927 37.3569C247.886 37.095 243.832 36.7453 239.78 36.3955C231.673 35.6978 223.564 35 223.564 35L219 85.1879L236.84 72.8724Z" fill="#C1E3D7"/>
<path d="M283.64 76.1032C283.64 76.1032 287.664 79.8537 291.688 83.606C295.728 87.4048 299.809 91 299.809 91L302 39.8601C302 39.8601 299.944 39.8244 296.867 39.6637C293.792 39.4781 289.69 39.2317 285.59 38.9854C277.387 38.4927 269.186 38 269.186 38L266 89.0863L283.64 76.1032Z" fill="#9DBC98"/>
<path d="M330.435 77.5601C330.435 77.5601 334.591 81.187 338.748 84.8139C340.84 86.6282 342.932 88.4425 344.501 89.8032C346.077 91.1213 347.126 92 347.126 92L348 41.0015C348 41.0015 345.924 41.0335 342.816 40.9036C339.709 40.804 335.564 40.6688 331.419 40.5354C323.13 40.2686 314.842 40 314.842 40L313 90.9737L330.435 77.5601Z" fill="#EBD9B4"/>
<path d="M377.012 78.0006L394 92L393.578 41.1489L360.512 41L360 91.8511L377.012 78.0006Z" fill="#638889"/>
<path d="M423.55 77.8476L441 91.1909L439.313 41L406 41.7863L406.774 92L423.55 77.8476Z" fill="#C1E3D7"/>
<path d="M470.336 76.0671L488 89.1732L485.096 38L452 39.7839L454.022 91L470.336 76.0671Z" fill="#9DBC98"/>
<path d="M517.121 73.7278L535 86.3704L530.915 35C530.915 35 522.689 35.7009 514.465 36.4019C506.246 37.2035 498 37.5648 498 37.5648L501.227 89C501.227 89 505.219 85.2399 509.212 81.4816C513.166 77.6047 517.121 73.7278 517.121 73.7278Z" fill="#EBD9B4"/>
<path d="M563.897 69.6576C563.897 69.6576 565.026 70.4393 566.717 71.6108C568.413 72.8055 570.667 74.3029 572.928 75.7932C577.463 78.7862 582 81.7791 582 81.7791L576.761 31C576.761 31 574.717 31.2386 571.65 31.5947C568.585 31.9526 564.499 32.46 560.396 32.7538C552.197 33.4464 544 34.139 544 34.139L548.396 85L563.897 69.6576Z" fill="#638889"/>
<path d="M610.641 64.3271L629 76.1462L622.632 26L590 29.7551L595.543 80L610.641 64.3271Z" fill="#C1E3D7"/>
<path d="M656.935 58.5167L676 69.9965L668.329 19L635 23.8847L641.847 75L656.935 58.5167Z" fill="#9DBC98"/>
<path d="M703.183 51.5414L722 62.3268L713.419 12C713.419 12 705.326 13.4731 697.236 14.9479C695.211 15.3077 693.194 15.705 691.29 16.0113C689.385 16.2945 687.606 16.56 686.081 16.7862C683.031 17.2386 681 17.5396 681 17.5396L688.791 68C688.791 68 692.41 63.9263 696.03 59.8545C697.835 57.8435 699.623 55.7558 700.958 54.167C702.292 52.5906 703.183 51.5414 703.183 51.5414Z" fill="#EBD9B4"/>
<path d="M749.445 43.2822L769 53.9792L759.117 4L726 9.87334L735.084 60L749.445 43.2822Z" fill="#638889"/>
</svg>
